<?xml version="1.0" encoding="utf-8"?>
<!-- Generator: Adobe Illustrator 15.1.0, SVG Export Plug-In . SVG Version: 6.00 Build 0)  -->
<!DOCTYPE svg PUBLIC "-//W3C//DTD SVG 1.1//EN" "http://www.w3.org/Graphics/SVG/1.1/DTD/svg11.dtd">
<svg version="1.1" id="Layer_1" xmlns="http://www.w3.org/2000/svg" xmlns:xlink="http://www.w3.org/1999/xlink" x="0px" y="0px"
	 width="40px" height="40px" viewBox="0 0 40 40" enable-background="new 0 0 40 40" xml:space="preserve">
<g>
	<path fill="#3C5A98" d="M30.8,29.565c0,0.679-0.557,1.234-1.234,1.234H10.435c-0.678,0-1.234-0.555-1.234-1.234V10.435
		C9.2,9.755,9.757,9.2,10.435,9.2h19.131c0.678,0,1.234,0.555,1.234,1.234V29.565z"/>
	<rect x="10.743" y="26.172" fill="#6D84B3" width="18.514" height="3.084"/>
	<path fill="#FFFFFF" d="M21.544,29.256v-7.94h-2.102v-2.86h2.102c0,0,0-1.171,0-2.44c0-1.919,1.238-3.682,4.098-3.682
		c1.158,0,2.012,0.11,2.012,0.11l-0.068,2.67c0,0-0.87-0.008-1.822-0.008c-1.031,0-1.195,0.475-1.195,1.263c0,0.623,0-1.329,0,2.087
		h3.1l-0.133,2.86h-2.967v7.94H21.544z"/>
</g>
</svg>
