<?xml version="1.0" encoding="utf-8"?>
<!-- Generator: Adobe Illustrator 15.1.0, SVG Export Plug-In . SVG Version: 6.00 Build 0)  -->
<!DOCTYPE svg PUBLIC "-//W3C//DTD SVG 1.1//EN" "http://www.w3.org/Graphics/SVG/1.1/DTD/svg11.dtd">
<svg version="1.1" id="Layer_1" xmlns="http://www.w3.org/2000/svg" xmlns:xlink="http://www.w3.org/1999/xlink" x="0px" y="0px"
	 width="26.667px" height="72px" viewBox="0 0 26.667 72" enable-background="new 0 0 26.667 72" xml:space="preserve">
<g>
	<path fill="#F15A24" d="M5.613,11.792c0,0.774,0.456,1.185,1.368,1.232h1.44c1.008,0.048,1.883,0.504,2.628,1.367
		c0.744,0.864,1.116,1.849,1.116,2.952c0,1.345-0.48,2.473-1.44,3.384c-0.961,0.913-2.16,1.368-3.6,1.368
		c-1.681,0-3.06-0.659-4.14-1.979s-1.62-3.012-1.62-5.076c0-3.84,1.512-7.776,4.536-11.808C7.005,1.745,7.965,1,8.782,1
		c0.911,0,1.368,0.483,1.368,1.449c0,0.387-0.264,0.918-0.792,1.593C8.397,5.25,7.533,6.65,6.766,8.244
		C5.997,9.837,5.613,11.021,5.613,11.792z M18.717,11.792c0,0.774,0.456,1.185,1.368,1.232h1.44c0.96,0.048,1.812,0.504,2.556,1.367
		c0.744,0.864,1.116,1.849,1.116,2.952c0,1.345-0.48,2.473-1.44,3.384c-0.96,0.913-2.16,1.368-3.6,1.368
		c-1.681,0-3.06-0.659-4.14-1.979s-1.62-3.012-1.62-5.076c0-3.84,1.512-7.776,4.536-11.808C20.037,1.745,20.997,1,21.813,1
		c0.911,0,1.368,0.483,1.368,1.449c0,0.387-0.265,0.918-0.792,1.593c-1.296,1.643-2.376,3.598-3.24,5.867
		C18.861,10.683,18.717,11.311,18.717,11.792z"/>
</g>
</svg>
