<?xml version="1.0" encoding="utf-8"?>
<!-- Generator: Adobe Illustrator 15.1.0, SVG Export Plug-In . SVG Version: 6.00 Build 0)  -->
<!DOCTYPE svg PUBLIC "-//W3C//DTD SVG 1.1//EN" "http://www.w3.org/Graphics/SVG/1.1/DTD/svg11.dtd">
<svg version="1.1" id="Layer_1" xmlns="http://www.w3.org/2000/svg" xmlns:xlink="http://www.w3.org/1999/xlink" x="0px" y="0px"
	 width="40px" height="40px" viewBox="0 0 40 40" enable-background="new 0 0 40 40" xml:space="preserve">
<g>
	<path fill="#CA2027" d="M20,8.503C13.649,8.503,8.503,13.65,8.503,20c0,4.708,2.83,8.752,6.882,10.53
		c-0.033-0.803-0.006-1.767,0.2-2.64c0.221-0.934,1.479-6.266,1.479-6.266s-0.368-0.734-0.368-1.818
		c0-1.704,0.988-2.977,2.217-2.977c1.047,0,1.552,0.786,1.552,1.727c0,1.051-0.671,2.623-1.016,4.079
		c-0.288,1.221,0.611,2.215,1.815,2.215c2.178,0,3.645-2.798,3.645-6.112c0-2.52-1.697-4.406-4.783-4.406
		c-3.488,0-5.66,2.601-5.66,5.506c0,1.002,0.295,1.708,0.758,2.256c0.213,0.251,0.242,0.352,0.165,0.641
		c-0.055,0.211-0.181,0.72-0.233,0.922c-0.077,0.292-0.313,0.396-0.576,0.288c-1.607-0.656-2.354-2.415-2.354-4.393
		c0-3.266,2.755-7.183,8.217-7.183c4.39,0,7.278,3.177,7.278,6.587c0,4.51-2.507,7.88-6.203,7.88c-1.241,0-2.408-0.672-2.81-1.434
		c0,0-0.668,2.648-0.809,3.16c-0.243,0.887-0.721,1.772-1.156,2.463c1.033,0.306,2.126,0.472,3.258,0.472
		c6.349,0,11.497-5.147,11.497-11.497S26.349,8.503,20,8.503z"/>
</g>
</svg>
