<?xml version="1.0" encoding="utf-8"?>
<!-- Generator: Adobe Illustrator 15.1.0, SVG Export Plug-In . SVG Version: 6.00 Build 0)  -->
<!DOCTYPE svg PUBLIC "-//W3C//DTD SVG 1.1//EN" "http://www.w3.org/Graphics/SVG/1.1/DTD/svg11.dtd">
<svg version="1.1" id="Layer_1" xmlns="http://www.w3.org/2000/svg" xmlns:xlink="http://www.w3.org/1999/xlink" x="0px" y="0px"
	 width="26.667px" height="36px" viewBox="0 0 26.667 36" enable-background="new 0 0 26.667 36" xml:space="preserve">
<g>
	<path fill="#F15A24" d="M7.897,12.368c0-0.768-0.457-1.176-1.368-1.225H5.09c-0.961-0.048-1.812-0.496-2.556-1.342
		C1.789,8.956,1.417,7.951,1.417,6.79c0-1.354,0.479-2.492,1.44-3.411C3.817,2.46,5.018,2,6.458,2c1.631,0,2.988,0.66,4.068,1.979
		c1.08,1.321,1.62,3.014,1.62,5.076c0,3.937-1.488,7.873-4.464,11.809c-1.105,1.488-2.064,2.231-2.88,2.231
		c-0.961,0-1.44-0.479-1.44-1.439c0-0.384,0.263-0.911,0.792-1.584c0.959-1.199,1.823-2.593,2.592-4.177
		C7.513,14.312,7.897,13.137,7.897,12.368z M20.93,12.368c0-0.768-0.432-1.176-1.296-1.225h-1.44
		c-1.008-0.048-1.885-0.496-2.628-1.342C14.821,8.956,14.45,7.951,14.45,6.79c0-1.354,0.479-2.492,1.44-3.411
		C16.849,2.46,18.05,2,19.49,2c1.68,0,3.06,0.66,4.14,1.979c1.08,1.321,1.62,3.014,1.62,5.076c0,3.889-1.512,7.824-4.536,11.809
		c-1.152,1.488-2.112,2.231-2.88,2.231c-0.912,0-1.368-0.479-1.368-1.439c0-0.384,0.263-0.911,0.792-1.584
		c0.911-1.199,1.751-2.593,2.52-4.177C20.545,14.312,20.93,13.137,20.93,12.368z"/>
</g>
</svg>
