<?xml version="1.0" encoding="utf-8"?>
<!-- Generator: Adobe Illustrator 15.1.0, SVG Export Plug-In . SVG Version: 6.00 Build 0)  -->
<!DOCTYPE svg PUBLIC "-//W3C//DTD SVG 1.1//EN" "http://www.w3.org/Graphics/SVG/1.1/DTD/svg11.dtd">
<svg version="1.1" id="Layer_1" xmlns="http://www.w3.org/2000/svg" xmlns:xlink="http://www.w3.org/1999/xlink" x="0px" y="0px"
	 width="25.833px" height="39.584px" viewBox="0 0 25.833 39.584" enable-background="new 0 0 25.833 39.584" xml:space="preserve">
<path fill="#F15A24" d="M25.627,24.536c-0.088-0.532-0.088-1.552-0.486-1.951c-0.399-0.399-1.242-1.242-1.507-1.419
	c-0.269-0.177-1.242-0.931-1.376-1.151c-0.132-0.223-0.798-0.887-0.931-1.065c-0.133-0.177-0.398-0.621-0.621-0.798
	c-0.222-0.178-0.577-0.622-0.709-0.754c-0.134-0.134-0.887-0.621-1.064-0.621S18.579,16.2,18.579,16.2l-1.286-0.221
	c0.178-0.931-0.222-1.153-0.267-1.375c-0.044-0.222-0.753-1.064-0.976-1.729c-0.223-0.665-1.798-3.433-2.108-4.142
	c-0.473-1.416-1.166-3.016-1.504-3.842c-0.428-1.049-1.417-2.854-1.646-3.424c-0.229-0.572-1.05-1.096-1.3-1.223
	C9.243,0.119,8.811,0.322,8.596,0.561C8.381,0.797,8.572,1.632,8.572,1.632l0.896,0.311c0,0,0.698,0.731,1.054,1.365
	c0.354,0.635,0.508,1.106,0.676,1.489c0.167,0.384,1.087,2.357,1.273,2.921c0.064,0.198,0.191,0.571,0.337,0.996
	c-0.036,0.518-0.216,3.084-0.216,3.362c0,0.311-0.31,0.798-0.441,1.153c-0.134,0.355-0.311,1.286-0.311,1.419
	c0,0.133-0.089,0.532-0.089,0.666c0,0.02-0.019,0.062-0.05,0.118l-0.307-0.029c0,0-1.239,0.355-1.417,0.398
	c-0.179,0.045-2.173,0.533-2.75,0.71c-0.575,0.177-2.305,0.666-2.837,0.842s-1.817,0.444-2.306,0.976
	c-0.487,0.532-0.842,0.887-1.108,1.286c-0.266,0.4-0.709,1.198-0.709,1.198s-0.134,1.107-0.088,1.905
	c0.042,0.799,0.131,1.729,0.221,2.262c0.089,0.532,0.267,1.197,0.398,1.552c0.134,0.354,0.267,1.019,0.354,1.196
	c0.09,0.177,0.444,1.064,0.532,1.286c0.09,0.222,0.354,0.932,0.665,1.375c0.312,0.443,0.532,0.931,1.021,1.374
	c0.487,0.443,0.576,0.489,0.931,0.842c0.354,0.354,0.664,0.489,0.887,0.931c0.222,0.443,0.177,0.355,0.444,0.754
	c0.266,0.399,0.266,0.354,0.398,0.931c0.133,0.577,0.221,0.887,0.266,1.198c0.045,0.311,0.089,0.531,0.045,0.842
	c-0.045,0.31-0.133,0.664-0.222,0.843c-0.089,0.176-0.046,0.398-0.222,0.398c-0.178,0-0.533-0.223-0.533-0.223
	s-0.133,0.312-0.043,0.488c0.088,0.177,0.487,0.443,0.62,0.533c0.132,0.088,0.354,0.088,0.577,0.088
	c0.221,0,0.708-0.088,0.931-0.178c0.222-0.088,4.566-1.862,5.63-2.306c1.064-0.443,3.016-1.374,3.946-1.861
	c0.932-0.488,3.325-1.685,3.813-2.085c0.487-0.398,0.976-0.753,1.685-1.64c0.71-0.887,1.419-1.596,1.685-1.995
	c0.267-0.399,0.799-1.374,0.976-2.128C25.362,26.442,25.717,25.068,25.627,24.536z"/>
</svg>
