<?xml version="1.0" encoding="utf-8"?>
<!-- Generator: Adobe Illustrator 15.1.0, SVG Export Plug-In . SVG Version: 6.00 Build 0)  -->
<!DOCTYPE svg PUBLIC "-//W3C//DTD SVG 1.1//EN" "http://www.w3.org/Graphics/SVG/1.1/DTD/svg11.dtd">
<svg version="1.1" id="Layer_1" xmlns="http://www.w3.org/2000/svg" xmlns:xlink="http://www.w3.org/1999/xlink" x="0px" y="0px"
	 width="40px" height="40px" viewBox="0 0 40 40" enable-background="new 0 0 40 40" xml:space="preserve">
<path fill="#F16739" d="M28.609,10.281H11.391c-0.61,0-1.111,0.499-1.11,1.111v17.216c0,0.611,0.5,1.11,1.11,1.11h17.218
	c0.609,0,1.109-0.499,1.109-1.11V11.391C29.719,10.78,29.22,10.281,28.609,10.281z M14.686,27.007c-0.941,0-1.705-0.765-1.705-1.708
	c0-0.941,0.764-1.704,1.705-1.704c0.942,0,1.707,0.763,1.707,1.704C16.393,26.242,15.628,27.007,14.686,27.007z M18.968,27.017
	c0-1.609-0.624-3.123-1.755-4.259c-1.129-1.135-2.631-1.76-4.231-1.76v-2.462c4.659,0,8.448,3.805,8.448,8.48H18.968z M23.318,27.02
	c0-5.728-4.634-10.386-10.332-10.386v-2.464c7.056,0,12.795,5.765,12.795,12.85H23.318z"/>
</svg>
