<?xml version="1.0" encoding="utf-8"?>
<!-- Generator: Adobe Illustrator 15.1.0, SVG Export Plug-In . SVG Version: 6.00 Build 0)  -->
<!DOCTYPE svg PUBLIC "-//W3C//DTD SVG 1.1//EN" "http://www.w3.org/Graphics/SVG/1.1/DTD/svg11.dtd">
<svg version="1.1" id="Layer_1" xmlns="http://www.w3.org/2000/svg" xmlns:xlink="http://www.w3.org/1999/xlink" x="0px" y="0px"
	 width="40px" height="40px" viewBox="0 0 40 40" enable-background="new 0 0 40 40" xml:space="preserve">
<g>
	<path fill="#F16739" d="M30.799,29.564c0,0.68-0.557,1.234-1.232,1.234H10.435c-0.678,0-1.234-0.555-1.234-1.234V10.436
		C9.2,9.756,9.756,9.201,10.435,9.201h19.132c0.678,0,1.232,0.555,1.232,1.233V29.564z"/>
</g>
<g id="lines__x003C_Group_x003E_">
	<circle id="circle" fill="#FFFFFF" cx="14.096" cy="25.888" r="1.896"/>
	<g>
		<path fill="#FFFFFF" d="M12.202,21.108c1.777,0,3.446,0.694,4.701,1.956c1.257,1.262,1.95,2.943,1.95,4.731h2.735
			c0-5.195-4.209-9.423-9.386-9.423V21.108z"/>
	</g>
	<g>
		<path fill="#FFFFFF" d="M12.207,16.259c6.331,0,11.481,5.177,11.481,11.54h2.736c0-7.872-6.377-14.277-14.217-14.277V16.259z"/>
	</g>
</g>
</svg>
