<?xml version="1.0" encoding="utf-8"?>
<!-- Generator: Adobe Illustrator 15.1.0, SVG Export Plug-In . SVG Version: 6.00 Build 0)  -->
<!DOCTYPE svg PUBLIC "-//W3C//DTD SVG 1.1//EN" "http://www.w3.org/Graphics/SVG/1.1/DTD/svg11.dtd">
<svg version="1.1" id="Layer_1" xmlns="http://www.w3.org/2000/svg" xmlns:xlink="http://www.w3.org/1999/xlink" x="0px" y="0px"
	 width="23.25px" height="18.954px" viewBox="0 0 23.25 18.954" enable-background="new 0 0 23.25 18.954" xml:space="preserve">
<path fill="#F1B6A1" d="M22.985,2.431c-0.836,0.371-1.735,0.621-2.677,0.733c0.962-0.576,1.701-1.489,2.049-2.578
	c-0.899,0.534-1.898,0.922-2.959,1.131c-0.852-0.906-2.062-1.472-3.404-1.472c-2.572,0-4.66,2.087-4.66,4.661
	c0,0.365,0.041,0.721,0.121,1.062C7.581,5.773,4.146,3.918,1.846,1.098c-0.401,0.689-0.63,1.49-0.63,2.344
	c0,1.617,0.822,3.045,2.074,3.881C2.526,7.297,1.806,7.088,1.177,6.738c0,0.02,0,0.039,0,0.059c0,2.259,1.607,4.143,3.739,4.57
	c-0.392,0.107-0.803,0.164-1.228,0.164c-0.301,0-0.592-0.029-0.877-0.084c0.593,1.852,2.313,3.2,4.354,3.237
	C5.57,15.936,3.56,16.68,1.376,16.68c-0.377,0-0.748-0.021-1.111-0.064c2.062,1.322,4.512,2.094,7.146,2.094
	c8.573,0,13.262-7.103,13.262-13.262c0-0.203-0.005-0.404-0.013-0.604C21.57,4.186,22.361,3.365,22.985,2.431z"/>
</svg>
