<?xml version="1.0" encoding="utf-8"?>
<!-- Generator: Adobe Illustrator 15.1.0, SVG Export Plug-In . SVG Version: 6.00 Build 0)  -->
<!DOCTYPE svg PUBLIC "-//W3C//DTD SVG 1.1//EN" "http://www.w3.org/Graphics/SVG/1.1/DTD/svg11.dtd">
<svg version="1.1" id="Layer_1" xmlns="http://www.w3.org/2000/svg" xmlns:xlink="http://www.w3.org/1999/xlink" x="0px" y="0px"
	 width="40px" height="40px" viewBox="0 0 40 40" enable-background="new 0 0 40 40" xml:space="preserve">
<path fill="#2AA9E0" d="M31.36,12.954c-0.836,0.371-1.735,0.621-2.677,0.734c0.962-0.576,1.701-1.49,2.049-2.579
	c-0.899,0.534-1.898,0.922-2.959,1.131c-0.852-0.906-2.062-1.472-3.404-1.472c-2.572,0-4.66,2.087-4.66,4.661
	c0,0.366,0.041,0.721,0.121,1.062c-3.874-0.194-7.309-2.05-9.608-4.87c-0.401,0.688-0.63,1.489-0.63,2.343
	c0,1.617,0.822,3.044,2.074,3.88c-0.765-0.024-1.484-0.234-2.113-0.583c0,0.02,0,0.039,0,0.059c0,2.259,1.607,4.143,3.739,4.571
	c-0.392,0.106-0.803,0.164-1.228,0.164c-0.301,0-0.592-0.029-0.877-0.083c0.593,1.851,2.313,3.2,4.354,3.237
	c-1.597,1.25-3.606,1.996-5.79,1.996c-0.377,0-0.748-0.022-1.111-0.065c2.062,1.323,4.512,2.094,7.146,2.094
	c8.573,0,13.262-7.103,13.262-13.262c0-0.202-0.005-0.403-0.013-0.604C29.945,14.709,30.736,13.889,31.36,12.954z"/>
</svg>
